<?xml version="1.0" encoding="utf-8"?>
<!-- Svg Vector Icons : http://www.sfont.cn -->
<!DOCTYPE svg PUBLIC "-//W3C//DTD SVG 1.1//EN" "http://www.w3.org/Graphics/SVG/1.1/DTD/svg11.dtd">
<svg version="1.1" xmlns="http://www.w3.org/2000/svg" xmlns:xlink="http://www.w3.org/1999/xlink" x="0px" y="0px" viewBox="0 0 1000 1000" enable-background="new 0 0 1000 1000" xml:space="preserve">
<metadata> Svg Vector Icons : http://www.sfont.cn </metadata>
<g><path d="M220,185h700c19.4,0,35,15.6,35,35c0,19.4-15.6,35-35,35H80c-19.4,0-35-15.6-35-35s15.6-35,35-35H220"/><path d="M605,745c-19.4,0-35-15.6-35-35V360c0-19.4,15.6-35,35-35s35,15.6,35,35v350C640,729.4,624.4,745,605,745z"/><path d="M395,745c-19.4,0-35-15.6-35-35V360c0-19.4,15.6-35,35-35s35,15.6,35,35v350C430,729.4,414.4,745,395,745z"/><path d="M255,220h-70V115c0-57.9,47.1-105,105-105h385.8c57.9,0,105,47.1,105,105v105h-70V115c0-19.3-15.7-35-35-35H290c-19.3,0-35,15.7-35,35V220z"/><path d="M745.1,990H255.1c-57.9,0-105-47.1-105-105V359.5c0-19.3,15.7-35,35-35c19.3,0,35,15.7,35,35V885c0,19.3,15.7,35,35,35h490.1c19.3,0,35-15.7,35-35V360.9c0-19.3,15.6-35,35-35c19.4,0,35,15.7,35,35V885C850.1,942.9,803,990,745.1,990z"/></g>
</svg>