<?xml version="1.0" encoding="utf-8"?>
<!-- Svg Vector Icons : http://www.sfont.cn -->
<!DOCTYPE svg PUBLIC "-//W3C//DTD SVG 1.1//EN" "http://www.w3.org/Graphics/SVG/1.1/DTD/svg11.dtd">
<svg version="1.1" xmlns="http://www.w3.org/2000/svg" xmlns:xlink="http://www.w3.org/1999/xlink" x="0px" y="0px" viewBox="0 0 1000 1000" enable-background="new 0 0 1000 1000" xml:space="preserve">
<metadata> Svg Vector Icons : http://www.sfont.cn </metadata>
<g><path d="M407.8,805.6c-53.7,0-105.8-10.5-154.9-31.3c-47.4-20-89.9-48.7-126.4-85.2C90,652.5,61.3,610,41.3,562.6C20.5,513.6,10,461.5,10,407.8c0-53.7,10.5-105.8,31.3-154.9c20-47.4,48.7-89.9,85.2-126.4C163,90,205.6,61.3,252.9,41.3C302,20.5,354.1,10,407.8,10c53.7,0,105.8,10.5,154.9,31.3c47.4,20,89.9,48.7,126.4,85.2c36.5,36.5,65.2,79.1,85.2,126.4c20.7,49.1,31.3,101.2,31.3,154.9c0,53.7-10.5,105.8-31.3,154.8c-20,47.4-48.7,89.9-85.2,126.4c-36.5,36.5-79.1,65.2-126.4,85.2C513.6,795.1,461.5,805.6,407.8,805.6L407.8,805.6z M407.8,68C220.4,68,68,220.4,68,407.8s152.4,339.8,339.8,339.8s339.8-152.4,339.8-339.8S595.2,68,407.8,68L407.8,68z M899.6,990c-24.1,0-46.7-9.3-63.8-26.3L664.2,797.4l40.4-41.6l172,166.8c6.1,6.1,14.3,9.5,23,9.5s16.8-3.4,23-9.5c6.1-6.1,9.5-14.3,9.5-23c0-8.7-3.4-16.8-9.5-23l-0.3-0.3L755.8,704.6l41.6-40.4l166.3,171.5c17,17,26.3,39.7,26.3,63.8c0,24.2-9.4,46.9-26.5,64C946.5,980.6,923.8,990,899.6,990L899.6,990z M235.3,580.3c-46.1-46.1-71.5-107.4-71.5-172.6c0-65.2,25.4-126.5,71.5-172.6l41,41c-72.6,72.6-72.6,190.7,0,263.2L235.3,580.3L235.3,580.3z"/></g>
</svg>